<svg xmlns="http://www.w3.org/2000/svg" xmlns:xlink="http://www.w3.org/1999/xlink" width="500" zoomAndPan="magnify" viewBox="0 0 375 374.999991" height="500" preserveAspectRatio="xMidYMid meet" version="1.0"><defs><clipPath id="0abd300bb9"><path d="M 100 117 L 282 117 L 282 260 L 100 260 Z M 100 117 " clip-rule="nonzero"/></clipPath><clipPath id="a421ac26e6"><path d="M 268.109375 269.371094 L 90.023438 248.976562 L 106.492188 105.164062 L 284.578125 125.558594 Z M 268.109375 269.371094 " clip-rule="nonzero"/></clipPath><clipPath id="97c374b4ca"><path d="M 271.523438 239.5625 L 281.117188 155.765625 C 283.003906 139.304688 271.1875 124.433594 254.726562 122.546875 L 136.691406 109.03125 C 120.230469 107.144531 105.355469 118.960938 103.472656 135.421875 L 93.875 219.222656 C 91.992188 235.683594 103.808594 250.554688 120.269531 252.441406 L 238.304688 265.957031 C 254.765625 267.839844 269.636719 256.023438 271.523438 239.5625 Z M 271.523438 239.5625 " clip-rule="nonzero"/></clipPath><clipPath id="5719b06920"><path d="M 268.109375 269.371094 L 90.769531 249.0625 L 107.152344 105.996094 L 284.492188 126.304688 Z M 268.109375 269.371094 " clip-rule="nonzero"/></clipPath><clipPath id="f2ef72e4fa"><path d="M 268.109375 269.371094 L 90.769531 249.0625 L 107.152344 105.996094 L 284.492188 126.304688 Z M 268.109375 269.371094 " clip-rule="nonzero"/></clipPath><clipPath id="60f5ce5d60"><path d="M 102 119 L 276 119 L 276 259 L 102 259 Z M 102 119 " clip-rule="nonzero"/></clipPath><clipPath id="1b579d16d1"><path d="M 269.828125 263.078125 L 96.875 252.933594 L 105.089844 112.925781 L 278.039062 123.070312 Z M 269.828125 263.078125 " clip-rule="nonzero"/></clipPath><clipPath id="a2c9018e76"><path d="M 272.070312 224.894531 L 275.773438 161.722656 C 277.011719 140.636719 260.917969 122.535156 239.828125 121.300781 L 143.34375 115.640625 C 122.257812 114.40625 104.15625 130.496094 102.921875 151.585938 L 99.214844 214.757812 C 97.980469 235.84375 114.074219 253.945312 135.160156 255.179688 L 231.644531 260.839844 C 252.734375 262.074219 270.832031 245.984375 272.070312 224.894531 Z M 272.070312 224.894531 " clip-rule="nonzero"/></clipPath><clipPath id="344eab683c"><path d="M 269.828125 263.078125 L 96.875 252.933594 L 105.042969 113.675781 L 277.996094 123.816406 Z M 269.828125 263.078125 " clip-rule="nonzero"/></clipPath><clipPath id="ccee81aab8"><path d="M 269.828125 263.078125 L 96.875 252.933594 L 105.042969 113.675781 L 277.996094 123.816406 Z M 269.828125 263.078125 " clip-rule="nonzero"/></clipPath><clipPath id="c13767b558"><path d="M 179.898438 200.257812 L 215.210938 200.257812 L 215.210938 260.871094 L 179.898438 260.871094 Z M 179.898438 200.257812 " clip-rule="nonzero"/></clipPath><clipPath id="27b4437d2b"><path d="M 152.621094 223.132812 L 189.136719 223.132812 L 189.136719 260.871094 L 152.621094 260.871094 Z M 152.621094 223.132812 " clip-rule="nonzero"/></clipPath></defs><rect x="-37.5" width="450" fill="#ffffff" y="-37.499999" height="449.999989" fill-opacity="1"/><rect x="-37.5" width="450" fill="#001f3d" y="-37.499999" height="449.999989" fill-opacity="1"/><g clip-path="url(#0abd300bb9)"><g clip-path="url(#a421ac26e6)"><g clip-path="url(#97c374b4ca)"><g clip-path="url(#5719b06920)"><g clip-path="url(#f2ef72e4fa)"><path fill="#e87a00" d="M 226.054688 119.464844 C 247.070312 121.871094 266.523438 126.609375 283.167969 132.929688 C 271.574219 129.785156 259.066406 127.375 245.945312 125.875 C 180.191406 118.34375 124.101562 136.511719 120.671875 166.460938 C 118.339844 186.828125 140.984375 207.402344 176.414062 220.855469 C 129.871094 208.265625 98.039062 184.023438 100.785156 160.042969 C 104.214844 130.105469 160.300781 111.9375 226.054688 119.464844 Z M 210.714844 233.894531 L 210.664062 234.332031 C 184.414062 231.328125 182.023438 235.367188 179.285156 259.277344 L 178.84375 259.226562 C 181.582031 235.320312 180.152344 230.839844 153.902344 227.832031 L 153.953125 227.394531 C 180.203125 230.402344 182.605469 226.375 185.34375 202.464844 L 185.785156 202.515625 C 183.046875 226.421875 184.464844 230.886719 210.714844 233.894531 " fill-opacity="1" fill-rule="evenodd"/></g></g></g></g></g><path stroke-linecap="butt" transform="matrix(0, -0.75, 0.75, 0, 160.658461, 204.769499)" fill="none" stroke-linejoin="miter" d="M -0.0000435954 8.002261 L 89.072879 8.002261 " stroke="#e87a00" stroke-width="16" stroke-opacity="1" stroke-miterlimit="4"/><g clip-path="url(#60f5ce5d60)"><g clip-path="url(#1b579d16d1)"><g clip-path="url(#a2c9018e76)"><g clip-path="url(#344eab683c)"><g clip-path="url(#ccee81aab8)"><path fill="#f5f5f5" d="M 221.125 120.402344 C 241.574219 121.601562 260.632812 125.136719 277.070312 130.355469 C 265.6875 127.933594 253.464844 126.277344 240.699219 125.527344 C 176.722656 121.777344 123.46875 142.351562 121.757812 171.492188 C 120.597656 191.3125 143.59375 209.984375 178.570312 221.089844 C 132.894531 211.417969 100.816406 189.6875 102.1875 166.351562 C 103.894531 137.226562 157.148438 116.648438 221.125 120.402344 Z M 212.433594 231.859375 L 212.40625 232.285156 C 186.867188 230.789062 184.769531 234.824219 183.40625 258.085938 L 182.980469 258.0625 C 184.34375 234.800781 182.722656 230.546875 157.179688 229.046875 L 157.203125 228.621094 C 182.746094 230.117188 184.851562 226.09375 186.21875 202.832031 L 186.644531 202.859375 C 185.28125 226.121094 186.890625 230.359375 212.433594 231.859375 " fill-opacity="1" fill-rule="evenodd"/></g></g></g></g></g><g clip-path="url(#c13767b558)"><path fill="#001f3d" d="M 179.898438 200.257812 L 215.210938 200.257812 L 215.210938 260.8125 L 179.898438 260.8125 Z M 179.898438 200.257812 " fill-opacity="1" fill-rule="nonzero"/></g><g clip-path="url(#27b4437d2b)"><path fill="#001f3d" d="M 152.621094 223.132812 L 189.136719 223.132812 L 189.136719 260.929688 L 152.621094 260.929688 Z M 152.621094 223.132812 " fill-opacity="1" fill-rule="nonzero"/></g></svg>